<mxfile host="Electron" modified="2024-04-14T17:49:47.690Z" agent="Mozilla/5.0 (Windows NT 10.0; Win64; x64) AppleWebKit/537.36 (KHTML, like Gecko) draw.io/24.1.0 Chrome/120.0.6099.109 Electron/28.1.0 Safari/537.36" etag="S4ah9L298btrYqi1diGw" version="24.1.0" type="device">
  <diagram name="第 1 页" id="taEbZqzdvnDVmn6BAE-b">
    <mxGraphModel dx="1050" dy="621" grid="1" gridSize="10" guides="1" tooltips="1" connect="1" arrows="1" fold="1" page="1" pageScale="1" pageWidth="827" pageHeight="1169" math="0" shadow="0">
      <root>
        <mxCell id="0" />
        <mxCell id="1" parent="0" />
        <mxCell id="tiITRVNtB7IrxeQdZV56-5" style="rounded=0;orthogonalLoop=1;jettySize=auto;html=1;exitX=0.75;exitY=0;exitDx=0;exitDy=0;entryX=0.5;entryY=1;entryDx=0;entryDy=0;endArrow=none;endFill=0;" edge="1" parent="1" source="tiITRVNtB7IrxeQdZV56-1" target="tiITRVNtB7IrxeQdZV56-3">
          <mxGeometry relative="1" as="geometry" />
        </mxCell>
        <mxCell id="tiITRVNtB7IrxeQdZV56-1" value="Sign" style="rounded=0;whiteSpace=wrap;html=1;" vertex="1" parent="1">
          <mxGeometry x="340" y="320" width="90" height="30" as="geometry" />
        </mxCell>
        <mxCell id="tiITRVNtB7IrxeQdZV56-4" style="rounded=0;orthogonalLoop=1;jettySize=auto;html=1;exitX=0.5;exitY=1;exitDx=0;exitDy=0;entryX=0;entryY=0;entryDx=0;entryDy=0;endArrow=none;endFill=0;" edge="1" parent="1" source="tiITRVNtB7IrxeQdZV56-2" target="tiITRVNtB7IrxeQdZV56-1">
          <mxGeometry relative="1" as="geometry" />
        </mxCell>
        <mxCell id="tiITRVNtB7IrxeQdZV56-2" value="Time" style="rounded=1;whiteSpace=wrap;html=1;" vertex="1" parent="1">
          <mxGeometry x="230" y="240" width="90" height="30" as="geometry" />
        </mxCell>
        <mxCell id="tiITRVNtB7IrxeQdZV56-3" value="StudentID" style="rounded=1;whiteSpace=wrap;html=1;" vertex="1" parent="1">
          <mxGeometry x="420" y="240" width="90" height="30" as="geometry" />
        </mxCell>
      </root>
    </mxGraphModel>
  </diagram>
</mxfile>
